# xmcd
#
# Track frame offsets:
#	150
#	14121
#	33188
#	47458
#	61000
#	75387
#	89254
#	103732
#	122084
#	133910
#	144969
#	160201
#	176850
#	189716
#	205806
#	220427
#	233098
#	246406
#	258258
#	271254
#
# Disc length: 3928 seconds
#
# Revision: 1
# Processed by: cddbd v1.5.1PL2 Copyright (c) Steve Scherf et al.
# Submitted via: audiograbber 1.83.01
#
DISCID=1c0f5614
DTITLE=Dujka Brothers - Dujka Brothers Vol. 1
DYEAR=1900
DGENRE=Polka
TTITLE0=Dance Hall Polka
TTITLE1=Fallen Leaf
TTITLE2=From Tabor To USA
TTITLE3=Orphan
TTITLE4=Red And White
TTITLE5=Around The Moon
TTITLE6=I Got My Education Behind The Barn
TTITLE7=Isaballa
TTITLE8=Eating Kolaches
TTITLE9=Julida
TTITLE10=Starlight
TTITLE11=Blackcrow
TTITLE12=Hill And Dale
TTITLE13=Once Upon A Time On A Sunday
TTITLE14=My Angel
TTITLE15=Praha Polka
TTITLE16=What Can Happen To Us
TTITLE17=Al Ja Sam
TTITLE18=Cradle Polka
TTITLE19=At The Dance
EXTD=
EXTT0=
EXTT1=
EXTT2=
EXTT3=
EXTT4=
EXTT5=
EXTT6=
EXTT7=
EXTT8=
EXTT9=
EXTT10=
EXTT11=
EXTT12=
EXTT13=
EXTT14=
EXTT15=
EXTT16=
EXTT17=
EXTT18=
EXTT19=
PLAYORDER=
